# xmcd CD database file
#
# Track frame offsets:
#	150
#	12025
#	26175
#	40740
#	55042
#	68960
#	81512
#	95485
#	107915
#	120187
#	131730
#	144040
#	156542
#	168117
#	179422
#	190900
#	204887
#	216717
#	228430
#	240575
#
# Disc length: 3384 seconds
#
# Revision: 0
# Processed by: cddbd v1.4PL0 Copyright (c) Steve Scherf et al.
# Submitted via: CDex 1.51
#
DISCID=140d3614
DTITLE=Louis Jordan - At The Swing Cats' Ball (The Early Years)
DYEAR=1991
DGENRE=Jazz
TTITLE0=Gee, But You're Swell
TTITLE1=Rusty Hinge
TTITLE2=It's Swell Of You
TTITLE3=Toodle-oo On Down
TTITLE4=So Good
TTITLE5=Away Form You
TTITLE6=Honey In The Bee Ball
TTITLE7=Barnacle Bill The Sailor
TTITLE8=Flat Face
TTITLE9=Keep A-Knockin' 
TTITLE10=Sam Jones Done Snagged His Britches
TTITLE11=Swingon' In The Coconut Trees
TTITLE12=Doug The Jitterbug
TTITLE13=At The Swing Cats' Ball
TTITLE14=Jake, What A Snake
TTITLE15=Honeysuckle Rose
TTITLE16='Fore Day Blues
TTITLE17=But I'll Be Back
TTITLE18=You Ain't Nowhere
TTITLE19=You're My Meat
EXTD=YEAR: 1991
EXTT0=
EXTT1=
EXTT2=
EXTT3=
EXTT4=
EXTT5=
EXTT6=
EXTT7=
EXTT8=
EXTT9=
EXTT10=
EXTT11=
EXTT12=
EXTT13=
EXTT14=
EXTT15=
EXTT16=
EXTT17=
EXTT18=
EXTT19=
PLAYORDER=
